<svg xmlns="http://www.w3.org/2000/svg" width="650" height="300"><defs><style>.cls-1{fill:#77b5d5}.cls-13{fill:#3aa4dc}</style></defs><g id="Layer_1" data-name="Layer 1"><path d="M638.35 163.8a25.3 25.3 0 0 0-12.49 0c-.48.14-1.2.78-.57 1.22 6.8 4.8 13.69.21 17.89-5.71.33-.47.09-.92-.47-1-8-1-15.69.1-23.39 2.22-1.19.32-.83 1.65.36 1.32 7.37-2 14.72-3.07 22.36-2.14l-.48-1c-3.49 4.91-8.83 9.37-14.78 5.17l-.57 1.22a23.1 23.1 0 0 1 11.47 0c1 .21 2-1.13.67-1.41zm4.71-2.08c.64 0 2.09-1 .79-1-.63 0-2.08 1-.79 1" class="cls-1"/><path fill="#f6873e" d="m127.7 163.08 45.53-2.38v53.84l-45.06 6.76z"/><path fill="#9baa3a" d="M82.17 109.64v56.31l45.53-2.87.47-53.44z"/><path fill="#f17991" d="m173.23 160.7 33.92-2.15v-46.29l-34.38-1.19z"/><path fill="#dfa427" d="M7.83 109.64h22.3v182.3l-22.3-3.82z"/><path fill="#709f40" d="M60.8 50.46h21.37v59.17H60.8z"/><path fill="#4282a6" d="m108.19 53.43 19.98 2.28V8.46h-19.98z"/><path fill="#fbb715" d="M30.13 109.64h52.04v56.31l46-2.87v57.27l44.6-5.73v44.86L30.13 291.94"/><path fill="#7ebb42" d="M128.17 109.64h-46zV55.71l-46-5.25v59.18z"/><path fill="#39a3dc" d="m207.15 112.26 25.09-13.62V32.09L128.17 8.46l104.07 23.63v125.27l-25.09 1.19zl-34.38-1.19V61.44l-44.6-5.73v53.93"/><path fill="#f15a4c" d="m172.77 214.62 34.38-4.55v-51.52l-33.92 2.15z"/><path fill="#fff" d="M207.15 112.26C129.3 161 77.19 210.62 56 288.64a242 242 0 0 1 29.9-8.44c24.22-5.31 48-13.05 72.38-17.36a17.37 17.37 0 0 1 11.15-3.7 20.4 20.4 0 0 1 4.08.4c.18 0 .35-.09.53-.13.64-1.51 1.24-3 1.92-4.53-.16-7.7-.31-15.39-.34-23.1 0-9.09 5-14.8 11.43-17.17a17.87 17.87 0 0 1 9-2.56h7.8c3.28-2.56 3.42-4.48 3.28-11.27.06-8.83 0 8.71 0 0v-14.19c.28-.52-.28-20.14 0-20.64.61-1.1-1-7.82 0-10.29-3.16-30.46-.31 12.88 0-17.87.03-.65-.03-24.91.02-25.53" opacity=".15"/><path d="m172.77 259.48 472.02-.1V155.66l-408.28 1.7-29.36-.74v53.45l-34.38 4.55z" class="cls-13"/><text fill="#4f4f4f" font-family="ArialRoundedMTBold,Arial Rounded MT Bold,ArialMT,Arial" font-size="77.5" transform="matrix(.97 0 0 1 229.32 242.06)">MINDSING</text><path d="M635.14 162.94c-1.89.09-3.57 1-5.44 1.09-.23 0-2 .65-1.18.9a29.2 29.2 0 0 0 9.1 1.14c.62 0 2.09-.95.79-.95a26.6 26.6 0 0 1-8.33-1l-1.17.9c1.89-.08 3.57-1 5.44-1.09.62 0 2.09-1 .79-.95z" class="cls-1"/><path d="M642.07 164.12a59.5 59.5 0 0 0-13.24-2.2c0 .18 0 .37-.05.56 4.34-2.26 9-2.48 10.74 2.74 1.22 3.7.1 8-1.37 11.43-.16.37 1.69.19 1.91-.33 1.85-4.35 3.13-10.32-.07-14.38-3-3.78-9-1.52-12.34.24-.3.15-.64.55-.06.56a58.2 58.2 0 0 1 12.9 2.15c.47.12 2.18-.62 1.58-.77" class="cls-1"/><text fill="#fff" font-family="ArialRoundedMTBold,Arial Rounded MT Bold,ArialMT,Arial" font-size="77.5" transform="matrix(.97 0 0 1 231.05 239.8)">MINDSING</text><path fill="#308fc2" d="m207.15 112.26 25.09-13.62V32.09L128.17 8.46v47.25l44.6 5.73v49.63"/></g><g id="Layer_5" data-name="Layer 5"><path fill="#ee5240" d="M329.69 259.48h278.99v32.45H329.69z"/><text fill="#fff" font-family="MyriadPro-Semibold,Myriad Pro,ArialMT,Arial" font-size="22.5" font-weight="600" transform="translate(352.19 284.75)scale(1.15)">CREATIVE WORKS</text></g><path id="Layer_4" d="M630.73 165.6a6.64 6.64 0 0 1 3.27-1.91l-1.11-.29c.29 1.08-2.07 1.23-2.68 1.53s-.79.95 0 1.07a4.75 4.75 0 0 0 3-.56c1.22-.6.11-1.29-.8-.93a4.64 4.64 0 0 0-1.89 1.17c-.35.31-.16.65.21.78 2.36.9 5.33-.44 7.36-1.64.38-.23.54-.83 0-.92a8.41 8.41 0 0 0-7 1.62c-.58.53.23.82.67.8.91 0 7.31-2 4.54-3.59-2.07-1.16-5.58 2.13-6.58 3.61a.37.37 0 0 0 .15.55c1.08.58 6.54.33 5.24-2-1.09-1.93-6.19-1.63-7.45 0-2 2.63 4 1 4.82.41 2.59-1.86-3.25-2.14-4.33-1.75-.39.15-.84.65-.36 1 1.32.87 6 .06 5-2.36s-5.71-1.68-6.17.88c-.52 2.92 3.67 4.25 5.6 2.35 2.17-2.15-2.87-5.33-5-4.23-.28.15-.62.36-.57.72.24 1.53 6.2 1.91 6.64.17s-3.81-1.47-4.11.65c-.05.34.32.51.61.51a4.23 4.23 0 0 0 3.48-1.32c.17-.2.31-.56 0-.71-.52-.22-5.95-1-4.57 1s5.78.51 7.34-.46c.21-.13.54-.51.28-.75-1.32-1.21-4.66-2.3-5.36.09-.1.34.37.48.61.5a4.45 4.45 0 0 0 3.9-1.48c.3-.34.19-.63-.21-.78-2.39-.93-4.87.5-6.45 2.28-.21.24-.27.51 0 .71 1.58 1 4.74.92 5.83-.78 1.24-1.92-4.14-2-4.89-1.77-.36.1-1.06.47-.74.94 1 1.52 6.32 3 6.84.21.36-1.88-4.89-.15-5.44 1.09-1 2.28 5.55 1.59 6.45 1 .56-.34 2-1.88.86-2.45-1.31-.66-2.82 0-4 .59-1 .48-.38 1.26.54 1a3 3 0 0 0 2.58-2.24c.1-.34-.37-.49-.61-.5-1.08-.06-3.63.88-2.06 2.24 1.22 1.07 4.25 0 5.39-.7.26-.17.59-.66.15-.85-1.33-.56-3.24-.77-4.38.36-1.47 1.45 2.3 1.86 3 1.92 1.08.09 3.77.1 4.18-1.32.6-2.08-2.19-2-3.48-1.68-1.5.36-3.25 1.86-3.07 3.48.16 1.4 3.74.69 4.4.19 2.86-2.18-2.68-3.33-3.57.07-.11.45.58.53.86.5 1.42-.18 5.44-2.86 2.38-3.68a1.48 1.48 0 0 0-1.49.52c-.57.77-.34 2-.16 2.9.72 3.55 3.93 4.53 1.64 8.6l1.87-.2c-.25-3.41-.53-8.28.34-11.6l-1.93.37c.89 4.76.93 9.47-1.36 13.77l1.8-.35-.08-.08c-.42-.41-1.83-.2-1.87.5 0 .07-.28 3.52.6 2.52a7.9 7.9 0 0 0 1.63-2.27c.86-1.95.53-4.5.21-6.53-.12-.73-1.67-.25-1.87.21-1 2.17-.26 5.66-2.21 7.2l1.58.25c.25-2 3.86-11.84.53-12.39-.48-.08-1.45 0-1.55.68-.27 1.69-4.71 2.8-1.3 1.61a6.6 6.6 0 0 0 2.06-1.51l-1.7-.26c-.81 1.24-1.75 2.36-2.58 3.58-.58.84 1.22.57 1.52.4.84-.47 5-3 3.88-4.51a5 5 0 0 0-2.58-2.07 1.3 1.3 0 0 0-.73 0c-1.09.29-.6.26-.87 0l-1.66.9c.78.49 1.62.86 2.42 1.3 3 1.67 1.08-.2.4-1a2.93 2.93 0 0 0-3.45-.77c-3.19 2 .82 3.21 2.84 2 .4-.24.52-.8 0-.92a11.9 11.9 0 0 0-3.71.05l.67.81 1.28-.83-1-.81a8.4 8.4 0 0 0-2.42 2.06c-.58.7.4.87.93.76a5.1 5.1 0 0 0 1.55-.62c1.14-.64-.53-1.08-1.23-.7l-.61.22.93.75a5.1 5.1 0 0 1 2.08-1.77c1-.61-.35-1.16-1-.81a9.3 9.3 0 0 0-2 1.34c-.61.49.24.84.67.8a9.3 9.3 0 0 1 2.79-.11v-.92c-.12.07 1.94 3.17 3.55 2.32 2.72-1.44-2.22-3.64-3-4.14-.47-.3-2.25.3-1.65.9s1.06 1 2 .71.42-.81 1.75.79-1.85 3-2.89 3.59l1.52.4c.84-1.22 1.78-2.34 2.59-3.58.56-.87-1.35-.58-1.7-.26-1.28 1.16-2.93 1.17-4 2.5-.27.33-.22.64.21.78 3.3 1 6 .33 6.55-3.18l-1.55.68c1.75.28-1.14 10.1-1.31 11.44-.09.76 1.26.51 1.59.25 2.59-2.06 1.56-5 2.79-7.8l-1.87.21a11.7 11.7 0 0 1-.42 6.64c-.41.92-1.51 1.27-1.67 2.29 0 .26.17.4.39.47 2.54.8 3-1.93 3.13-3.85l-1.86.5.08.09a1.32 1.32 0 0 0 1.8-.35c2.4-4.49 2.41-9.41 1.48-14.39-.15-.79-1.79-.21-1.94.36-.54 2.05-.23 4.08-.27 6.18 0 1.92-.2 3.8-.06 5.73.06.76 1.66.18 1.88-.21 1.11-2 1.59-3.15.56-5.32-.66-1.38-3.37-4.4-2-6.18l-1.49.52-1 1.33.85.49q-1.41-2.56 1.39-1.73a6.5 6.5 0 0 1-2-.08c.05-.28.1-.56.14-.85a9.4 9.4 0 0 1-4.36.8c.18.34.36.68.55 1 1.33-.62 2 .17.13.38-1.27.34-2-.16-2.16-1.51a2.36 2.36 0 0 1-1.65-1.06c-.25.32-.5.63-.74 1l1-.08c.6.9.52 1.12-.25.68 2.53-2.83 1.39.5 3.13-.08-.48.16-5.19 1.27-5.39 0-.18.25-.37.49-.56.73.9-.47 2.39 1.78 2.63 2.34l-1 .42c1.78-2 1.68-2.44-.31-1.33-.12.32-.25.64-.36 1 2.25-.82.73.53 1.63.42h1.11c1.61.06 1.68.41.2 1.05a11.5 11.5 0 0 1 1.81-1.54c2.1-1.53-.64.62-1.71.66l.68.81a5.2 5.2 0 0 1 4.22-.88v-.92a24 24 0 0 1-3.65 1.31l-.8-.93-1.49.27v1.07c1.67-.8 4.56-.17 3.81-3-.12-.44-.79-.36-1.11-.29a9.85 9.85 0 0 0-4.56 2.59c-.86.77 1.05.89 1.58.42z" class="cls-13" data-name="Layer 4"/><path id="CENTERsquare" fill="#fff" d="m128.17 109.64-.47 53.44 45.53-2.38-.46-49.63z"/></svg>
