<svg xmlns="http://www.w3.org/2000/svg" version="1.1" height="45" viewBox="0 0 112 123.1">
  <defs>
    <style>
      .cls-1 {
        fill: #f17991;
      }

      .cls-2 {
        fill: #77b5d5;
      }

      .cls-3 {
        fill: #9baa3a;
      }

      .cls-4 {
        fill: #f6873e;
      }

      .cls-5 {
        fill: #fbb715;
      }

      .cls-6, .cls-7 {
        fill: #fff;
      }

      .cls-8 {
        fill: #308fc2;
      }

      .cls-9 {
        fill: #dfa427;
      }

      .cls-10 {
        fill: #39a3dc;
      }

      .cls-11 {
        fill: #4282a6;
      }

      .cls-12 {
        fill: #f15a4c;
      }

      .cls-13 {
        fill: #709f40;
      }

      .cls-14 {
        fill: #7ebb42;
      }

      .cls-15 {
        fill: #3aa4dc;
      }

      .cls-7 {
        isolation: isolate;
        opacity: .2;
      }
    </style>
  </defs>
  <!-- Generator: Adobe Illustrator 28.7.1, SVG Export Plug-In . SVG Version: 1.2.0 Build 142)  -->
  <g>
    <g id="Layer_1">
      <g id="Layer_1-2">
        <path class="cls-2" d="M94.1,65.3c-1.5-.4-3.1-.4-4.6,0-.2,0-.4.3-.2.4,2.5,1.8,5,0,6.6-2.1.1-.2,0-.3-.2-.4-2.9-.4-5.7,0-8.6.8-.4.1-.3.6.1.5,2.7-.7,5.4-1.1,8.2-.8l-.2-.4c-1.3,1.8-3.2,3.4-5.4,1.9l-.2.4c1.4-.4,2.8-.4,4.2,0,.4,0,.7-.4.2-.5h0ZM95.9,64.6c.2,0,.8-.4.3-.4s-.8.4-.3.4"/>
        <path class="cls-4" d="M51.7,65.1l16.7-.9v19.7l-16.5,2.5-.2-21.3Z"/>
        <path class="cls-3" d="M35.1,45.5v20.6l16.7-1.1.2-19.6h-16.8Z"/>
        <path class="cls-1" d="M68.4,64.2l12.4-.8v-16.9l-12.6-.4.2,18.2Z"/>
        <path class="cls-9" d="M7.8,45.5h8.2v66.8l-8.2-1.4V45.5Z"/>
        <path class="cls-13" d="M27.2,23.8h7.8v21.7h-7.8v-21.7Z"/>
        <path class="cls-11" d="M44.6,24.9l7.3.8V8.5h-7.3v16.5Z"/>
        <path class="cls-5" d="M16,45.5h19.1v20.6l16.8-1.1v21l16.3-2.1v16.4l-52.2,11.9"/>
        <path class="cls-14" d="M51.9,45.5h-16.8l16.8-19.7-16.8-1.9v21.7h16.8Z"/>
        <path class="cls-10" d="M80.8,46.5l9.2-5v-24.4l-38.1-8.7,38.1,8.7v45.9l-9.2.4-12.6-17.4v-18.2l-16.3-2.1v19.7l28.9,1Z"/>
        <path class="cls-12" d="M68.2,83.9l12.6-1.7v-18.9l-12.4.8-.2,19.7Z"/>
        <path class="cls-7" d="M80.8,46.5c-28.5,17.8-47.6,36-55.3,64.6,3.6-1.3,7.2-2.3,10.9-3.1,8.9-1.9,17.6-4.8,26.5-6.4,1.2-.9,2.6-1.4,4.1-1.4.5,0,1,0,1.5.1,0,0,.1,0,.2,0,.2-.6.5-1.1.7-1.7,0-2.8-.1-5.6-.1-8.5,0-3.3,1.8-5.4,4.2-6.3,1-.6,2.1-.9,3.3-.9h2.9c1.2-.9,1.3-1.6,1.2-4.1,0-3.2,0,3.2,0,0v-5.2c.1-.2-.1-7.4,0-7.6.2-.4-.4-2.9,0-3.8-1.2-11.2-.1,4.7,0-6.5,0-.2,0-9.1,0-9.3"/>
        <path class="cls-15" d="M68.2,100.4h28.3v-38l-4.9.6-10.8-.3v19.6l-12.6,1.7v16.4Z"/>
        <path class="cls-2" d="M93,65c-.7,0-1.3.4-2,.4,0,0-.7.2-.4.3,1.1.3,2.2.5,3.3.4.2,0,.8-.3.3-.3-1,0-2.1,0-3.1-.4l-.4.3c.7,0,1.3-.4,2-.4.2,0,.8-.4.3-.3h0Z"/>
        <path class="cls-2" d="M95.5,65.5c-1.6-.5-3.2-.7-4.8-.8,0,0,0,.1,0,.2,1.6-.8,3.3-.9,3.9,1,.4,1.4,0,2.9-.5,4.2,0,.1.6,0,.7-.1.7-1.6,1.1-3.8,0-5.3-1.1-1.4-3.3-.6-4.5,0-.1,0-.2.2,0,.2,1.6,0,3.2.3,4.7.8.2,0,.8-.2.6-.3"/>
        <path class="cls-8" d="M80.8,46.5l9.2-5v-24.4l-38.1-8.7v17.3l16.3,2.1v18.2"/>
      </g>
      <path id="CENTERsquare" class="cls-6" d="M51.9,45.5l-.2,19.6,16.7-.9-.2-18.2-16.3-.5Z"/>
    </g>
  </g>
</svg>
