<svg id="Layer_1" data-name="Layer 1" xmlns="http://www.w3.org/2000/svg" viewBox="0 0 650 300"><defs><style>.ms-logo-f-1{fill:#f6873e;}.ms-logo-f-2{fill:#9baa3a;}.ms-logo-f-3{fill:#f17991;}.ms-logo-f-4{fill:#dfa427;}.ms-logo-f-5{fill:#709f40;}.ms-logo-f-6{fill:#4282a6;}.ms-logo-f-7{fill:#fbb715;}.ms-logo-f-8{fill:#7ebb42;}.ms-logo-f-9{fill:#39a3dc;}.ms-logo-f-10{fill:#f15a4c;}.ms-logo-f-11{fill:#3aa4dc;}.ms-logo-f-12,.ms-logo-f-13,.ms-logo-f-16{isolation:isolate;}.ms-logo-f-12,.ms-logo-f-13{font-size:77.5px;font-family:ArialRoundedMTBold, Arial Rounded MT Bold, ArialMT,Arial;}.ms-logo-f-12{fill:#4f4f4f;}.ms-logo-f-13,.ms-logo-f-16,.ms-logo-f-20{fill:#fff;}.ms-logo-f-14{fill:#308fc2;}.ms-logo-f-15{fill:#ee5240;}.ms-logo-f-16{font-size:25.88px;font-family:MyriadPro-Semibold, Myriad Pro, ArialMT,Arial;font-weight:600;}.ms-logo-f-17{letter-spacing:-0.08em;}.ms-logo-f-18{letter-spacing:-0.04em;}.ms-logo-f-19{letter-spacing:0em;}</style></defs><g id="Layer_1-2" data-name="Layer 1"><path class="ms-logo-f-1" d="M127.7,163.08l45.53-2.38v53.84l-45.06,6.76-.47-58.22Z"/><path class="ms-logo-f-2" d="M82.17,109.64V166l45.53-2.87.47-53.44Z"/><path class="ms-logo-f-3" d="M173.23,160.7l33.92-2.15V112.26l-34.38-1.19.46,49.63"/><path class="ms-logo-f-4" d="M7.83,109.64h22.3v182.3l-22.3-3.82Z"/><path class="ms-logo-f-5" d="M60.8,50.46H82.17v59.17H60.8Z"/><path class="ms-logo-f-6" d="M108.19,53.43l20,2.28V8.46h-20Z"/><path class="ms-logo-f-7" d="M30.13,109.64h52V166l46-2.87v57.27l44.6-5.73v44.86L30.13,291.94"/><path class="ms-logo-f-8" d="M128.17,109.64h0V55.71l-46-5.25v59.18h46"/><path class="ms-logo-f-9" d="M207.15,112.26l25.09-13.62V32.09L128.17,8.46,232.24,32.09V157.36l-25.09,1.19V112.26l-34.38-1.19V61.44l-44.6-5.73v53.93"/><path class="ms-logo-f-10" d="M172.77,214.62l34.38-4.55V158.55l-33.92,2.15-.46,53.92Z"/><path class="ms-logo-f-11" d="M172.77,259.48l472-.1V155.66l-408.28,1.7-29.36-.74v53.45l-34.38,4.55v44.86Z"/><text class="ms-logo-f-12" transform="translate(229.32 242.06) scale(0.97 1)">MINDSING</text><text class="ms-logo-f-13" transform="translate(231.05 239.8) scale(0.97 1)">MINDSING</text><path class="ms-logo-f-14" d="M207.15,112.26l25.09-13.62V32.09L128.17,8.46V55.71l44.6,5.73v49.63"/></g><g id="Layer_5" data-name="Layer 5"><path class="ms-logo-f-15" d="M329.69,259.48h279v32.45h-279Z"/><text class="ms-logo-f-16" transform="translate(352.19 284.75)">CREATIVE WORKS</text></g><path id="CENTERsquare" class="ms-logo-f-20" d="M128.17,109.64l-.47,53.44,45.53-2.38-.46-49.63-44.6-1.43Z"/></svg>
