<svg id="a" data-name="Layer_1" xmlns="http://www.w3.org/2000/svg" height="84" viewBox="0 0 187.17 84.05">
  <g id="b">
    <path d="M185.28,45.65c-1.2-.31-2.47-.31-3.67,0-.14.04-.35.23-.17.36,2,1.41,4.02.06,5.26-1.68.1-.14.03-.27-.14-.29-2.35-.29-4.61.03-6.87.65-.35.09-.24.48.11.39,2.17-.59,4.33-.9,6.57-.63l-.14-.29c-1.03,1.44-2.59,2.75-4.34,1.52l-.17.36c1.11-.28,2.26-.28,3.37,0,.29.06.59-.33.2-.41v.03ZM186.66,45.04c.19,0,.61-.29.23-.29-.19,0-.61.29-.23.29" style="fill: #77b5d5;"/>
    <path d="M35.22,45.43l13.38-.7v15.82l-13.24,1.99-.14-17.11Z" style="fill: #f6873e;"/>
    <path d="M21.84,29.73v16.55l13.38-.84.14-15.7h-13.52Z" style="fill: #9baa3a;"/>
    <path d="M48.6,44.74l9.97-.63v-13.6l-10.1-.35.14,14.58Z" style="fill: #f17991;"/>
    <path d="M0,29.73h6.55v53.57l-6.55-1.12V29.73Z" style="fill: #dfa427;"/>
    <path d="M15.57,12.34h6.28v17.39h-6.28V12.34Z" style="fill: #709f40;"/>
    <path d="M29.49,13.21l5.87.67V0h-5.87v13.21Z" style="fill: #4282a6;"/>
    <path d="M6.55,29.73h15.29v16.55l13.52-.84v16.83l13.11-1.68v13.18l-41.91,9.54" style="fill: #fbb715;"/>
    <path d="M35.36,29.73h-13.52l13.52-15.85-13.52-1.54v17.39h13.52Z" style="fill: #7ebb42;"/>
    <path d="M58.57,30.5l7.37-4V6.94L35.36,0l30.58,6.94v36.81l-7.37.35-10.1-13.95v-14.58l-13.11-1.68v15.85l23.21.77Z" style="fill: #39a3dc;"/>
    <path d="M48.47,60.58l10.1-1.34v-15.14l-9.97.63-.14,15.84Z" style="fill: #f15a4c;"/>
    <path d="M58.57,30.5c-22.88,14.32-38.19,28.9-44.42,51.83,2.87-1.01,5.81-1.84,8.79-2.48,7.12-1.56,14.1-3.83,21.27-5.1.93-.73,2.09-1.12,3.28-1.09.4,0,.8.04,1.2.12.05,0,.1-.03.16-.04.19-.44.36-.88.56-1.33-.05-2.26-.09-4.52-.1-6.79,0-2.67,1.47-4.35,3.36-5.05.8-.48,1.71-.74,2.64-.75h2.29c.96-.75,1-1.32.96-3.31.02-2.59,0,2.56,0,0v-4.17c.08-.15-.08-5.92,0-6.07.18-.32-.29-2.3,0-3.02-.93-8.95-.09,3.78,0-5.25,0-.19,0-7.32,0-7.5" style="fill: #fff; isolation: isolate; opacity: .15;"/>
    <path d="M48.47,73.76l138.7-.03v-30.48l-119.97.5-8.63-.22v15.71l-10.1,1.34v13.18Z" style="fill: #3aa4dc;"/>
    <text transform="translate(65.09 68.64) scale(.97 1)" style="fill: #4f4f4f; font-family: ArialRoundedMTBold, &apos;Arial Rounded MT Bold&apos;; font-size: 22.77px; isolation: isolate;"><tspan x="0" y="0">MINDSING</tspan></text>
    <path d="M184.33,45.39c-.56.03-1.05.29-1.6.32-.07,0-.59.19-.35.26.87.25,1.77.36,2.67.33.18,0,.61-.28.23-.28-.83.03-1.65-.07-2.45-.29l-.34.26c.56-.02,1.05-.29,1.6-.32.18,0,.61-.29.23-.28h0Z" style="fill: #77b5d5;"/>
    <path d="M186.37,45.74c-1.27-.36-2.57-.58-3.89-.65,0,.05,0,.11-.01.16,1.28-.66,2.64-.73,3.16.81.36,1.09.03,2.35-.4,3.36-.05.11.5.06.56-.1.54-1.28.92-3.03-.02-4.23-.88-1.11-2.64-.45-3.63.07-.09.04-.19.16-.02.16,1.28.07,2.55.28,3.79.63.14.04.64-.18.46-.23" style="fill: #77b5d5;"/>
    <text transform="translate(65.59 67.98) scale(.97 1)" style="fill: #fff; font-family: ArialRoundedMTBold, &apos;Arial Rounded MT Bold&apos;; font-size: 22.77px; isolation: isolate;"><tspan x="0" y="0">MINDSING</tspan></text>
    <path d="M58.57,30.5l7.37-4V6.94L35.36,0v13.88l13.11,1.68v14.58" style="fill: #308fc2;"/>
  </g>
  <g id="c">
    <path d="M94.58,73.76h81.98v9.54h-81.98v-9.54Z" style="fill: #ee5240;"/>
    <text transform="translate(101.19 81.19)" style="fill: #fff; font-family: Arial-BoldMT, Arial; font-size: 7.6px; font-weight: 700; isolation: isolate;"><tspan x="0" y="0">CRE</tspan><tspan x="16.05" y="0" style="letter-spacing: -.07em;">A</tspan><tspan x="20.98" y="0">TIVE WORKS</tspan></text>
  </g>
  <path id="d" d="M183.04,46.18c.26-.28.59-.47.96-.56l-.33-.09c.09.32-.61.36-.79.45s-.23.28,0,.31c.3.04.61-.01.88-.16.36-.18.03-.38-.24-.27-.21.07-.4.19-.56.34-.1.09-.05.19.06.23.69.26,1.57-.13,2.16-.48.11-.07.16-.24,0-.27-.72-.16-1.48.02-2.06.48-.17.16.07.24.2.24.27,0,2.15-.59,1.33-1.05-.61-.34-1.64.63-1.93,1.06-.03.05-.02.12.03.15,0,0,.01,0,.02.01.32.17,1.92.1,1.54-.59-.32-.57-1.82-.48-2.19,0-.59.77,1.18.29,1.42.12.76-.55-.96-.63-1.27-.51-.11.04-.25.19-.11.29.39.26,1.76.02,1.47-.69s-1.68-.49-1.81.26c-.15.86,1.08,1.25,1.65.69.64-.63-.84-1.57-1.47-1.24-.08.04-.18.11-.17.21.07.45,1.82.56,1.95.05s-1.12-.43-1.21.19c-.01.1.09.15.18.15.38.04.76-.11,1.02-.39.05-.06.09-.16,0-.21-.15-.06-1.75-.29-1.34.29s1.7.15,2.16-.14c.06-.04.16-.15.08-.22-.39-.36-1.37-.68-1.58.03-.03.1.11.14.18.15.43.05.86-.11,1.15-.43.09-.1.06-.19-.06-.23-.7-.27-1.43.15-1.9.67-.06.07-.08.15,0,.21.46.29,1.39.27,1.71-.23.36-.56-1.22-.59-1.44-.52-.11.03-.31.14-.22.28.29.45,1.86.88,2.01.06.11-.55-1.44-.04-1.6.32-.29.67,1.63.47,1.9.29.16-.1.59-.55.25-.72-.38-.19-.83,0-1.18.17-.29.14-.11.37.16.29.37-.04.67-.3.76-.66.03-.1-.11-.14-.18-.15-.32-.02-1.07.26-.61.66.36.31,1.25,0,1.58-.21.08-.05.17-.19.04-.25-.39-.16-.95-.23-1.29.11-.43.43.68.55.88.56.32.03,1.11.03,1.23-.39.18-.61-.64-.59-1.02-.49-.44.11-.96.55-.9,1.02.05.41,1.1.2,1.29.06.84-.64-.79-.98-1.05.02-.03.13.17.16.25.15.42-.05,1.6-.84.7-1.08-.16-.04-.33.02-.44.15-.17.23-.1.59-.05.85.21,1.04,1.15,1.33.48,2.53l.55-.06c-.07-1-.16-2.43.1-3.41l-.57.11c.26,1.4.27,2.78-.4,4.05l.53-.1-.02-.02c-.12-.12-.54-.06-.55.15,0,.02-.08,1.03.18.74.2-.19.36-.42.48-.67.25-.57.16-1.32.06-1.92-.04-.21-.49-.07-.55.06-.29.64-.08,1.66-.65,2.12l.46.07c.07-.59,1.13-3.48.16-3.64-.14-.02-.43,0-.46.2-.08.5-1.38.82-.38.47.23-.11.43-.26.61-.44l-.5-.08c-.24.36-.51.69-.76,1.05-.17.25.36.17.45.12.25-.14,1.47-.88,1.14-1.33-.18-.28-.44-.5-.76-.61-.07-.02-.14-.02-.21,0-.32.09-.18.08-.26,0l-.49.26c.23.14.48.25.71.38.88.49.32-.06.12-.29-.25-.29-.66-.39-1.01-.23-.94.59.24.94.83.59.12-.07.15-.24,0-.27-.36-.05-.73-.05-1.09.01l.2.24.38-.24-.29-.24c-.27.15-.51.36-.71.61-.17.21.12.26.27.22.16-.04.31-.1.46-.18.33-.19-.16-.32-.36-.21l-.18.06.27.22c.15-.23.36-.41.61-.52.29-.18-.1-.34-.29-.24-.21.11-.41.24-.59.39-.18.14.07.25.2.24.27-.05.55-.06.82-.03v-.27s.57.93,1.04.68c.8-.42-.65-1.07-.88-1.22-.14-.09-.66.09-.48.26s.31.29.59.21.12-.24.51.23-.54.88-.85,1.05l.45.12c.25-.36.52-.69.76-1.05.16-.26-.4-.17-.5-.08-.38.34-.86.34-1.18.73-.08.1-.06.19.06.23.97.29,1.76.1,1.92-.93l-.46.2c.51.08-.33,2.97-.38,3.36-.03.22.37.15.47.07.76-.61.46-1.47.82-2.29l-.55.06c.15.65.11,1.33-.12,1.95-.12.27-.44.37-.49.67,0,.08.05.12.11.14.75.24.88-.57.92-1.13l-.55.15.02.03c.18.11.41.07.53-.1.71-1.32.71-2.77.43-4.23-.04-.23-.53-.06-.57.11-.16.6-.07,1.2-.08,1.82,0,.56-.06,1.12-.02,1.68.02.22.49.05.55-.06.33-.59.47-.93.16-1.56-.19-.41-.99-1.29-.59-1.82l-.44.15-.29.39.25.14c-.28-.5-.14-.67.41-.51-.2.02-.39.01-.59-.02.01-.08.03-.16.04-.25-.4.18-.84.26-1.28.24.05.1.11.2.16.29.39-.18.59.05.04.11-.37.1-.59-.05-.63-.44-.2-.03-.38-.14-.48-.31-.07.09-.15.19-.22.29l.29-.02c.18.26.15.33-.07.2.74-.83.41.15.92-.02-.14.05-1.53.37-1.58,0-.05.07-.11.14-.16.21.26-.14.7.52.77.69l-.29.12c.52-.59.49-.72-.09-.39-.04.09-.07.19-.11.29.66-.24.21.16.48.12h.33c.47.02.49.12.06.31.16-.17.34-.32.53-.45.62-.45-.19.18-.5.19l.2.24c.36-.26.81-.36,1.24-.26v-.27c-.35.16-.71.29-1.07.38l-.24-.27-.44.08v.31c.49-.24,1.34-.05,1.12-.88-.04-.13-.23-.11-.33-.09-.51.13-.97.39-1.34.76-.25.23.31.26.46.12h-.03Z" style="fill: #3aa4dc;"/>
  <path id="e" d="M35.36,29.73l-.14,15.7,13.38-.7-.14-14.58-13.11-.42Z" style="fill: #fff;"/>
</svg>
