<svg xmlns="http://www.w3.org/2000/svg" data-name="Layer 1" viewBox="0 0 650 300"><g data-name="Layer 1"><path d="m127.7 163.08 45.53-2.38v53.84l-45.06 6.76z" style="fill:#f6873e"/><path d="M82.17 109.64V166l45.53-2.87.47-53.44Z" style="fill:#9baa3a"/><path d="m173.23 160.7 33.92-2.15v-46.29l-34.38-1.19z" style="fill:#f17991"/><path d="M7.83 109.64h22.3v182.3l-22.3-3.82Z" style="fill:#dfa427"/><path d="M60.8 50.46h21.37v59.17H60.8Z" style="fill:#709f40"/><path d="m108.19 53.43 20 2.28V8.46h-20Z" style="fill:#4282a6"/><path d="M30.13 109.64h52V166l46-2.87v57.27l44.6-5.73v44.86l-142.6 32.41" style="fill:#fbb715"/><path d="M128.17 109.64V55.71l-46-5.25v59.18z" style="fill:#7ebb42"/><path d="m207.15 112.26 25.09-13.62V32.09L128.17 8.46l104.07 23.63v125.27l-25.09 1.19zl-34.38-1.19V61.44l-44.6-5.73v53.93" style="fill:#39a3dc"/><path d="m172.77 214.62 34.38-4.55v-51.52l-33.92 2.15z" style="fill:#f15a4c"/><path d="m172.77 259.48 472-.1V155.66l-408.28 1.7-29.36-.74v53.45l-34.38 4.55v44.86Z" style="fill:#3aa4dc"/><text style="isolation:isolate;font-size:77.5px;font-family:ArialRoundedMTBold,Arial Rounded MT Bold,ArialMT,Arial;fill:#4f4f4f" transform="matrix(.97 0 0 1 229.32 242.06)">MINDSING</text><text style="isolation:isolate;font-size:77.5px;font-family:ArialRoundedMTBold,Arial Rounded MT Bold,ArialMT,Arial;fill:#fff" transform="matrix(.97 0 0 1 231.05 239.8)">MINDSING</text><path d="m207.15 112.26 25.09-13.62V32.09L128.17 8.46v47.25l44.6 5.73v49.63" style="fill:#308fc2"/></g><g data-name="Layer 5"><path d="M329.69 259.48h279v32.45h-279Z" style="fill:#ee5240"/><text style="isolation:isolate;fill:#fff;font-size:25.88px;font-family:MyriadPro-Semibold,Myriad Pro,ArialMT,Arial;font-weight:600" transform="translate(352.19 284.75)">CREATIVE WORKS</text></g><path d="m128.17 109.64-.47 53.44 45.53-2.38-.46-49.63z" style="fill:#fff"/></svg>