<?xml version="1.0" encoding="UTF-8"?>
<svg xmlns="http://www.w3.org/2000/svg" width="299.667" height="300" version="1.1" viewBox="0 0 299.667 300">
  <defs>
    <style>
      .cls-1 {
        fill: #f17991;
      }

      .cls-2 {
        fill: #4282a6;
      }

      .cls-3 {
        opacity: .15;
      }

      .cls-3, .cls-4 {
        fill: #fff;
      }

      .cls-5 {
        fill: #9baa3a;
      }

      .cls-6 {
        fill: #f6873e;
      }

      .cls-7 {
        fill: #fbb715;
      }

      .cls-8 {
        fill: #308fc2;
      }

      .cls-9 {
        fill: #dfa427;
      }

      .cls-10 {
        fill: #f15a4c;
      }

      .cls-11 {
        fill: #709f40;
      }

      .cls-12 {
        fill: #7ebb42;
      }

      .cls-13 {
        fill: #39a3dc;
      }
    </style>
  </defs>
  <!-- Generator: Adobe Illustrator 28.6.0, SVG Export Plug-In . SVG Version: 1.2.0 Build 709)  -->
  <g>
    <g id="Layer_1">
      <g>
        <polygon class="cls-6" points="157.701 162.148 203.234 159.763 203.234 213.606 158.168 220.368 157.701 162.148"/>
        <polygon class="cls-5" points="112.169 108.699 112.169 165.012 157.701 162.148 158.168 108.699 112.169 108.699"/>
        <polyline class="cls-1" points="203.234 159.763 237.152 157.614 237.152 111.325 202.769 110.132 203.234 159.763"/>
        <polygon class="cls-9" points="37.831 108.699 60.132 108.699 60.132 291 37.831 287.18 37.831 108.699"/>
        <rect class="cls-11" x="90.799" y="49.526" width="21.371" height="59.173"/>
        <polygon class="cls-2" points="138.188 52.494 158.168 54.776 158.168 7.528 138.188 7.528 138.188 52.494"/>
        <polyline class="cls-7" points="60.132 108.699 112.169 108.699 112.169 165.012 158.168 162.148 158.168 219.415 202.769 213.686 202.769 258.545 60.132 291"/>
        <polyline class="cls-12" points="158.168 108.699 112.169 108.699 158.168 108.699 158.168 54.776 112.169 49.526 112.169 108.699 158.168 108.699"/>
        <polyline class="cls-13" points="237.152 111.325 262.24 97.705 262.24 31.151 158.168 7.528 262.24 31.151 262.24 156.421 237.152 157.614 237.152 132.56 237.152 111.325 202.769 110.132 202.769 69.569 202.769 60.502 158.168 54.776 158.168 108.699"/>
        <polygon class="cls-10" points="202.769 213.686 237.152 209.138 237.152 157.614 203.234 159.763 202.769 213.686"/>
        <path class="cls-3" d="M237.152,111.325c-77.851,48.784-129.963,96.834-151.135,174.854,9.763-2.837,18.91-5.089,29.149-7.334,24.218-5.311,48.713-12.629,73.113-16.945q4.546-1.093,10.1-2.356c1.41-.321,3.855-1.198,5.13-.937,0,0-.457-1.892-.275-1.928.639-1.508-.672-2.018,0-3.5-.152-7.704.025-14.631,0-22.333-.029-9.097-2.122-14.79,4.267-17.161,2.693-1.574,15.296-2.567,18.565-2.567l11.086-1.981c.515-3.625.143-2.503-.002-9.289.059-8.836,0,8.705,0,0v-14.198c.275-.519-.285-20.133,0-20.638.611-1.095-.309,2.595.002-28.156.01-.654-.057-24.915,0-25.53Z"/>
      </g>
      <polyline class="cls-8" points="237.152 111.325 262.24 97.705 262.24 31.151 158.168 7.528 158.168 54.776 202.769 60.502 202.769 60.502 202.769 110.132"/>
      <polygon class="cls-4" points="158.168 108.699 157.701 162.148 203.234 159.763 202.769 110.132 158.168 108.699"/>
    </g>
  </g>
</svg>